<svg width="266" height="49" viewBox="0 0 266 49" fill="none" xmlns="http://www.w3.org/2000/svg">
<path d="M0.512024 48.064L8.89602 2.56L29.12 0.831997C28.8214 1.77066 28.5654 2.73066 28.352 3.712C28.1387 4.52266 27.9254 5.376 27.712 6.272C27.5414 7.12533 27.392 7.89333 27.264 8.576C26.8374 8.61867 26.2187 8.66133 25.408 8.704C24.64 8.704 23.808 8.72533 22.912 8.768C22.016 8.768 21.0987 8.768 20.16 8.768C19.264 8.768 18.4747 8.768 17.792 8.768L15.552 20.224C16.8747 20.1387 18.112 20.0747 19.264 20.032C20.2027 19.9893 21.1627 19.968 22.144 19.968C23.1254 19.968 23.8507 19.9467 24.32 19.904C24.1494 21.0987 23.9787 22.272 23.808 23.424C23.68 24.576 23.5094 25.7493 23.296 26.944C22.8694 26.9867 22.1654 27.0293 21.184 27.072C20.2454 27.072 19.2854 27.0933 18.304 27.136C17.1947 27.1787 15.9787 27.2213 14.656 27.264L12.48 39.04L21.824 37.568L21.184 44.864L0.512024 48.064Z" fill="white"/>
<path d="M45.3645 46.72C44.2979 46.8907 43.1245 47.0827 41.8445 47.296C40.5645 47.5093 39.4125 47.7013 38.3885 47.872C38.5592 46.464 38.7299 45.0773 38.9005 43.712C39.0285 42.5173 39.1352 41.3227 39.2205 40.128C39.3485 38.9333 39.4552 37.9093 39.5405 37.056H33.9725L31.4125 46.272C30.4739 46.4 29.3645 46.5493 28.0845 46.72C26.8045 46.848 25.6099 46.976 24.5005 47.104C23.1352 47.2747 21.7912 47.4453 20.4685 47.616C22.1752 41.9413 23.8605 36.352 25.5245 30.848C26.2072 28.544 26.9112 26.1333 27.6365 23.616C28.4045 21.0987 29.1512 18.6027 29.8765 16.128C30.6445 13.6107 31.3699 11.2 32.0525 8.896C32.7352 6.592 33.3325 4.48 33.8445 2.56C36.7459 2.34666 39.6899 2.09066 42.6765 1.792C45.7059 1.49333 48.6499 1.088 51.5085 0.575996C51.3805 1.94133 51.2312 3.648 51.0605 5.696C50.9325 7.70133 50.8045 9.89867 50.6765 12.288C50.5485 14.6773 50.4205 17.1733 50.2925 19.776C50.1645 22.3787 50.0365 24.9387 49.9085 27.456C49.6952 33.344 49.4605 39.5947 49.2045 46.208C47.9245 46.4213 46.6445 46.592 45.3645 46.72ZM35.5085 30.656C35.6792 30.656 35.9779 30.656 36.4045 30.656C36.8739 30.6133 37.3432 30.592 37.8125 30.592C38.3245 30.5493 38.7939 30.528 39.2205 30.528C39.6472 30.4853 39.9459 30.4427 40.1165 30.4C40.1165 30.144 40.1379 29.7173 40.1805 29.12C40.2659 28.48 40.3299 27.776 40.3725 27.008C40.4579 26.1973 40.5432 25.3227 40.6285 24.384C40.7139 23.4453 40.7992 22.528 40.8845 21.632C41.0552 19.456 41.2685 17.1093 41.5245 14.592L41.9085 9.024L40.9485 9.088L39.4765 14.592L35.5085 30.656Z" fill="white"/>
<path d="M52.885 48.064C53.8664 43.3707 54.805 38.7413 55.701 34.176C56.085 32.256 56.469 30.2507 56.853 28.16C57.237 26.0693 57.5997 24.0213 57.941 22.016C58.325 19.968 58.645 18.0053 58.901 16.128C59.1997 14.208 59.4557 12.4587 59.669 10.88C58.6877 10.752 57.685 10.7093 56.661 10.752C55.6797 10.7947 54.6984 10.6667 53.717 10.368C53.7597 9.68533 53.781 8.896 53.781 8C53.781 7.104 53.8024 6.208 53.845 5.312C53.8877 4.33066 53.9304 3.28533 53.973 2.176C55.0824 2.26133 56.1917 2.32533 57.301 2.368C58.4104 2.41066 59.5197 2.432 60.629 2.432C62.805 2.432 64.8957 2.38933 66.901 2.304C68.949 2.176 70.8264 2.048 72.533 1.92C74.2824 1.74933 75.989 1.55733 77.653 1.344L76.949 4.8C76.7357 5.78133 76.5224 6.784 76.309 7.808C76.1384 8.832 75.9677 9.70667 75.797 10.432C74.8584 10.688 73.8984 10.88 72.917 11.008C71.9784 11.0933 71.0397 11.2213 70.101 11.392C69.8024 12.8427 69.4824 14.464 69.141 16.256C68.7997 18.0053 68.4584 19.84 68.117 21.76C67.8184 23.6373 67.5197 25.5573 67.221 27.52C66.9224 29.4827 66.6237 31.36 66.325 33.152C65.6424 37.376 65.0024 41.7493 64.405 46.272L52.885 48.064Z" fill="white"/>
<path d="M111.165 32.192C111.165 34.5813 110.695 36.7573 109.757 38.72C108.861 40.64 107.623 42.304 106.045 43.712C104.509 45.12 102.674 46.208 100.541 46.976C98.4499 47.744 96.1885 48.128 93.7565 48.128C92.0499 48.128 90.3432 47.68 88.6365 46.784C86.9299 45.8453 85.2872 44.3733 83.7085 42.368L88.4445 33.088C88.7432 33.6427 89.1912 34.2187 89.7885 34.816C90.3859 35.3707 91.0472 35.8613 91.7725 36.288C92.5405 36.7147 93.2872 37.0773 94.0125 37.376C94.7805 37.632 95.4632 37.76 96.0605 37.76C96.5725 37.76 97.1059 37.6747 97.6605 37.504C98.2152 37.3333 98.7272 37.0773 99.1965 36.736C99.6659 36.3947 100.029 36.0107 100.285 35.584C100.583 35.1147 100.733 34.5813 100.733 33.984C100.733 32.96 100.391 32.0213 99.7085 31.168C99.0685 30.272 98.2579 29.44 97.2765 28.672C96.2952 27.8613 95.2285 27.0507 94.0765 26.24C92.9245 25.4293 91.8579 24.576 90.8765 23.68C89.9379 22.784 89.1272 21.7813 88.4445 20.672C87.7619 19.5627 87.4205 18.3253 87.4205 16.96C87.4205 14.7413 88.0819 12.672 89.4045 10.752C90.7272 8.832 92.3699 7.18933 94.3325 5.824C96.3379 4.416 98.5139 3.30666 100.861 2.496C103.207 1.68533 105.426 1.28 107.517 1.28C108.669 1.28 109.757 1.42933 110.781 1.728C111.805 1.984 112.679 2.432 113.405 3.072C114.173 3.66933 114.77 4.43733 115.197 5.376C115.666 6.31466 115.901 7.488 115.901 8.896C115.901 9.49333 115.837 10.0907 115.709 10.688C115.623 11.2853 115.538 11.9253 115.453 12.608L106.173 15.296C106.258 14.9547 106.322 14.6133 106.365 14.272C106.45 13.9307 106.493 13.5893 106.493 13.248C106.493 11.968 106.258 11.0507 105.789 10.496C105.362 9.89867 104.786 9.6 104.061 9.6C103.719 9.6 103.293 9.728 102.781 9.984C102.311 10.24 101.821 10.5813 101.309 11.008C100.839 11.392 100.434 11.8613 100.093 12.416C99.7512 12.9707 99.5805 13.568 99.5805 14.208C99.5805 15.232 99.8579 16.0853 100.413 16.768C101.01 17.4507 101.735 18.0907 102.589 18.688C103.442 19.2853 104.359 19.904 105.341 20.544C106.365 21.1413 107.303 21.9307 108.157 22.912C109.01 23.8933 109.714 25.1307 110.269 26.624C110.866 28.0747 111.165 29.9307 111.165 32.192Z" fill="white"/>
<path d="M116.073 48.064C117.054 43.3707 117.993 38.7413 118.889 34.176C119.273 32.256 119.657 30.2507 120.041 28.16C120.425 26.0693 120.787 24.0213 121.129 22.016C121.513 19.968 121.833 18.0053 122.089 16.128C122.387 14.208 122.643 12.4587 122.857 10.88C121.875 10.752 120.873 10.7093 119.849 10.752C118.867 10.7947 117.886 10.6667 116.905 10.368C116.947 9.68533 116.969 8.896 116.969 8C116.969 7.104 116.99 6.208 117.033 5.312C117.075 4.33066 117.118 3.28533 117.161 2.176C118.27 2.26133 119.379 2.32533 120.489 2.368C121.598 2.41066 122.707 2.432 123.817 2.432C125.993 2.432 128.083 2.38933 130.089 2.304C132.137 2.176 134.014 2.048 135.721 1.92C137.47 1.74933 139.177 1.55733 140.841 1.344L140.137 4.8C139.923 5.78133 139.71 6.784 139.497 7.808C139.326 8.832 139.155 9.70667 138.985 10.432C138.046 10.688 137.086 10.88 136.105 11.008C135.166 11.0933 134.227 11.2213 133.289 11.392C132.99 12.8427 132.67 14.464 132.329 16.256C131.987 18.0053 131.646 19.84 131.305 21.76C131.006 23.6373 130.707 25.5573 130.409 27.52C130.11 29.4827 129.811 31.36 129.513 33.152C128.83 37.376 128.19 41.7493 127.593 46.272L116.073 48.064Z" fill="white"/>
<path d="M155.677 46.72C154.61 46.8907 153.437 47.0827 152.157 47.296C150.877 47.5093 149.725 47.7013 148.701 47.872C148.872 46.464 149.042 45.0773 149.213 43.712C149.341 42.5173 149.448 41.3227 149.533 40.128C149.661 38.9333 149.768 37.9093 149.853 37.056H144.285L141.725 46.272C140.786 46.4 139.677 46.5493 138.397 46.72C137.117 46.848 135.922 46.976 134.813 47.104C133.448 47.2747 132.104 47.4453 130.781 47.616C132.488 41.9413 134.173 36.352 135.837 30.848C136.52 28.544 137.224 26.1333 137.949 23.616C138.717 21.0987 139.464 18.6027 140.189 16.128C140.957 13.6107 141.682 11.2 142.365 8.896C143.048 6.592 143.645 4.48 144.157 2.56C147.058 2.34666 150.002 2.09066 152.989 1.792C156.018 1.49333 158.962 1.088 161.821 0.575996C161.693 1.94133 161.544 3.648 161.373 5.696C161.245 7.70133 161.117 9.89867 160.989 12.288C160.861 14.6773 160.733 17.1733 160.605 19.776C160.477 22.3787 160.349 24.9387 160.221 27.456C160.008 33.344 159.773 39.5947 159.517 46.208C158.237 46.4213 156.957 46.592 155.677 46.72ZM145.821 30.656C145.992 30.656 146.29 30.656 146.717 30.656C147.186 30.6133 147.656 30.592 148.125 30.592C148.637 30.5493 149.106 30.528 149.533 30.528C149.96 30.4853 150.258 30.4427 150.429 30.4C150.429 30.144 150.45 29.7173 150.493 29.12C150.578 28.48 150.642 27.776 150.685 27.008C150.77 26.1973 150.856 25.3227 150.941 24.384C151.026 23.4453 151.112 22.528 151.197 21.632C151.368 19.456 151.581 17.1093 151.837 14.592L152.221 9.024L151.261 9.088L149.789 14.592L145.821 30.656Z" fill="white"/>
<path d="M160.069 48.064C161.221 42.3893 162.33 36.8427 163.397 31.424C163.781 29.12 164.207 26.7307 164.677 24.256C165.146 21.7387 165.573 19.264 165.957 16.832C166.383 14.3573 166.767 11.9893 167.109 9.728C167.493 7.424 167.791 5.33333 168.005 3.456C170.437 2.688 173.061 2.13333 175.877 1.792C178.693 1.408 181.487 1.216 184.261 1.216C185.925 1.216 187.29 1.408 188.357 1.792C189.466 2.176 190.319 2.73066 190.917 3.456C191.557 4.13867 192.005 4.94933 192.261 5.888C192.517 6.82666 192.645 7.872 192.645 9.024C192.645 10.7307 192.346 12.416 191.749 14.08C191.151 15.7013 190.341 17.2587 189.317 18.752C188.335 20.2027 187.183 21.5467 185.861 22.784C184.581 23.9787 183.194 24.96 181.701 25.728C182.469 27.4347 183.279 29.312 184.133 31.36C185.029 33.3653 185.861 35.2853 186.629 37.12C187.482 39.2533 188.357 41.3867 189.253 43.52L179.333 46.976C178.479 44.032 177.711 41.2587 177.029 38.656C176.73 37.5893 176.431 36.5013 176.133 35.392C175.834 34.24 175.557 33.1733 175.301 32.192C175.045 31.168 174.831 30.272 174.661 29.504C174.49 28.736 174.383 28.1387 174.341 27.712L173.509 27.968C173.253 29.3333 172.933 30.9973 172.549 32.96C172.207 34.9227 171.887 36.8213 171.589 38.656C171.205 40.832 170.821 43.072 170.437 45.376L160.069 48.064ZM175.109 20.288C175.919 20.2027 176.901 19.8613 178.053 19.264C179.247 18.6667 180.378 17.9627 181.445 17.152C182.511 16.2987 183.429 15.424 184.197 14.528C184.965 13.632 185.349 12.8427 185.349 12.16C185.349 11.6907 185.199 11.328 184.901 11.072C184.602 10.7733 184.175 10.56 183.621 10.432C183.109 10.2613 182.533 10.1547 181.893 10.112C181.253 10.0693 180.591 10.048 179.909 10.048C179.439 10.048 178.949 10.0693 178.437 10.112C177.967 10.112 177.541 10.112 177.157 10.112L175.109 20.288Z" fill="white"/>
<path d="M193.385 48.064C194.366 43.3707 195.305 38.7413 196.201 34.176C196.585 32.256 196.969 30.2507 197.353 28.16C197.737 26.0693 198.1 24.0213 198.441 22.016C198.825 19.968 199.145 18.0053 199.401 16.128C199.7 14.208 199.956 12.4587 200.169 10.88C199.188 10.752 198.185 10.7093 197.161 10.752C196.18 10.7947 195.198 10.6667 194.217 10.368C194.26 9.68533 194.281 8.896 194.281 8C194.281 7.104 194.302 6.208 194.345 5.312C194.388 4.33066 194.43 3.28533 194.473 2.176C195.582 2.26133 196.692 2.32533 197.801 2.368C198.91 2.41066 200.02 2.432 201.129 2.432C203.305 2.432 205.396 2.38933 207.401 2.304C209.449 2.176 211.326 2.048 213.033 1.92C214.782 1.74933 216.489 1.55733 218.153 1.344L217.449 4.8C217.236 5.78133 217.022 6.784 216.809 7.808C216.638 8.832 216.468 9.70667 216.297 10.432C215.358 10.688 214.398 10.88 213.417 11.008C212.478 11.0933 211.54 11.2213 210.601 11.392C210.302 12.8427 209.982 14.464 209.641 16.256C209.3 18.0053 208.958 19.84 208.617 21.76C208.318 23.6373 208.02 25.5573 207.721 27.52C207.422 29.4827 207.124 31.36 206.825 33.152C206.142 37.376 205.502 41.7493 204.905 46.272L193.385 48.064Z" fill="white"/>
<path d="M211.325 48.064L219.709 2.56L239.933 0.831997C239.634 1.77066 239.378 2.73066 239.165 3.712C238.951 4.52266 238.738 5.376 238.525 6.272C238.354 7.12533 238.205 7.89333 238.077 8.576C237.65 8.61867 237.031 8.66133 236.221 8.704C235.453 8.704 234.621 8.72533 233.725 8.768C232.829 8.768 231.911 8.768 230.973 8.768C230.077 8.768 229.287 8.768 228.605 8.768L226.365 20.224C227.687 20.1387 228.925 20.0747 230.077 20.032C231.015 19.9893 231.975 19.968 232.957 19.968C233.938 19.968 234.663 19.9467 235.133 19.904C234.962 21.0987 234.791 22.272 234.621 23.424C234.493 24.576 234.322 25.7493 234.109 26.944C233.682 26.9867 232.978 27.0293 231.997 27.072C231.058 27.072 230.098 27.0933 229.117 27.136C228.007 27.1787 226.791 27.2213 225.469 27.264L223.293 39.04L232.637 37.568L231.997 44.864L211.325 48.064Z" fill="white"/>
<path d="M232.881 48.064C234.033 42.3893 235.142 36.8427 236.209 31.424C236.593 29.12 237.02 26.7307 237.489 24.256C237.958 21.7387 238.385 19.264 238.769 16.832C239.196 14.3573 239.58 11.9893 239.921 9.728C240.305 7.424 240.604 5.33333 240.817 3.456C243.249 2.688 245.873 2.13333 248.689 1.792C251.505 1.408 254.3 1.216 257.073 1.216C258.737 1.216 260.102 1.408 261.169 1.792C262.278 2.176 263.132 2.73066 263.729 3.456C264.369 4.13867 264.817 4.94933 265.073 5.888C265.329 6.82666 265.457 7.872 265.457 9.024C265.457 10.7307 265.158 12.416 264.561 14.08C263.964 15.7013 263.153 17.2587 262.129 18.752C261.148 20.2027 259.996 21.5467 258.673 22.784C257.393 23.9787 256.006 24.96 254.513 25.728C255.281 27.4347 256.092 29.312 256.945 31.36C257.841 33.3653 258.673 35.2853 259.441 37.12C260.294 39.2533 261.169 41.3867 262.065 43.52L252.145 46.976C251.292 44.032 250.524 41.2587 249.841 38.656C249.542 37.5893 249.244 36.5013 248.945 35.392C248.646 34.24 248.369 33.1733 248.113 32.192C247.857 31.168 247.644 30.272 247.473 29.504C247.302 28.736 247.196 28.1387 247.153 27.712L246.321 27.968C246.065 29.3333 245.745 30.9973 245.361 32.96C245.02 34.9227 244.7 36.8213 244.401 38.656C244.017 40.832 243.633 43.072 243.249 45.376L232.881 48.064ZM247.921 20.288C248.732 20.2027 249.713 19.8613 250.865 19.264C252.06 18.6667 253.19 17.9627 254.257 17.152C255.324 16.2987 256.241 15.424 257.009 14.528C257.777 13.632 258.161 12.8427 258.161 12.16C258.161 11.6907 258.012 11.328 257.713 11.072C257.414 10.7733 256.988 10.56 256.433 10.432C255.921 10.2613 255.345 10.1547 254.705 10.112C254.065 10.0693 253.404 10.048 252.721 10.048C252.252 10.048 251.761 10.0693 251.249 10.112C250.78 10.112 250.353 10.112 249.969 10.112L247.921 20.288Z" fill="white"/>
</svg>
